<svg width="67" height="39" viewBox="0 0 67 39" fill="none" xmlns="http://www.w3.org/2000/svg">
<path d="M64.9223 36.8659C63.9964 37.7915 62.7407 38.3115 61.4315 38.3115C60.1222 38.3115 58.8666 37.7915 57.9407 36.8659L33.5 12.4253L9.05941 36.8659C8.12819 37.7653 6.88096 38.263 5.58636 38.2517C4.29177 38.2405 3.05338 37.7212 2.13792 36.8057C1.22247 35.8903 0.703209 34.6519 0.691964 33.3573C0.68071 32.0627 1.17838 30.8155 2.07779 29.8843L30.0092 1.95282C30.9351 1.02718 32.1908 0.507192 33.5 0.507192C34.8093 0.507192 36.0649 1.02718 36.9909 1.95282L64.9223 29.8843C65.8479 30.8102 66.3679 32.0658 66.3679 33.3751C66.3679 34.6843 65.8479 35.94 64.9223 36.8659Z" fill="black"/>
</svg>
