<svg width="45" height="45" viewBox="0 0 45 45" fill="none" xmlns="http://www.w3.org/2000/svg">
<path d="M43.2375 1.79542C42.933 1.49027 42.5713 1.24818 42.1731 1.083C41.7749 0.917816 41.348 0.832792 40.9169 0.832792C40.4858 0.832792 40.0589 0.917816 39.6607 1.083C39.2625 1.24818 38.9008 1.49027 38.5963 1.79542L22.5 17.8588L6.40375 1.7625C6.09901 1.45775 5.73722 1.21601 5.33904 1.05109C4.94087 0.886156 4.51411 0.80127 4.08313 0.80127C3.65215 0.80127 3.22539 0.886156 2.82722 1.05109C2.42904 1.21601 2.06725 1.45775 1.7625 1.7625C1.45775 2.06725 1.21601 2.42904 1.05109 2.82722C0.886156 3.22539 0.80127 3.65215 0.80127 4.08313C0.80127 4.51411 0.886156 4.94087 1.05109 5.33904C1.21601 5.73722 1.45775 6.09901 1.7625 6.40375L17.8588 22.5L1.7625 38.5963C1.45775 38.901 1.21601 39.2628 1.05109 39.661C0.886156 40.0591 0.80127 40.4859 0.80127 40.9169C0.80127 41.3479 0.886156 41.7746 1.05109 42.1728C1.21601 42.571 1.45775 42.9328 1.7625 43.2375C2.06725 43.5423 2.42904 43.784 2.82722 43.9489C3.22539 44.1139 3.65215 44.1987 4.08313 44.1987C4.51411 44.1987 4.94087 44.1139 5.33904 43.9489C5.73722 43.784 6.09901 43.5423 6.40375 43.2375L22.5 27.1413L38.5963 43.2375C38.901 43.5423 39.2628 43.784 39.661 43.9489C40.0591 44.1139 40.4859 44.1987 40.9169 44.1987C41.3479 44.1987 41.7746 44.1139 42.1728 43.9489C42.571 43.784 42.9328 43.5423 43.2375 43.2375C43.5423 42.9328 43.784 42.571 43.9489 42.1728C44.1139 41.7746 44.1987 41.3479 44.1987 40.9169C44.1987 40.4859 44.1139 40.0591 43.9489 39.661C43.784 39.2628 43.5423 38.901 43.2375 38.5963L27.1413 22.5L43.2375 6.40375C44.4883 5.15292 44.4883 3.04625 43.2375 1.79542Z" fill="black"/>
</svg>
