<svg width="47" height="57" viewBox="0 0 47 57" fill="none" xmlns="http://www.w3.org/2000/svg">
<path d="M38.6087 20.625H33.3749V4.16667C33.3749 2.35625 31.8937 0.875 30.0833 0.875H16.9166C15.1062 0.875 13.6249 2.35625 13.6249 4.16667V20.625H8.39117C5.46159 20.625 3.98033 24.18 6.05408 26.2537L21.1628 41.3625C22.4466 42.6462 24.5203 42.6462 25.8041 41.3625L40.9128 26.2537C42.9866 24.18 41.5383 20.625 38.6087 20.625ZM0.458252 53.5417C0.458252 55.3521 1.9395 56.8333 3.74992 56.8333H43.2499C45.0603 56.8333 46.5416 55.3521 46.5416 53.5417C46.5416 51.7312 45.0603 50.25 43.2499 50.25H3.74992C1.9395 50.25 0.458252 51.7312 0.458252 53.5417Z" fill="#7F1BFF"/>
</svg>
