<svg width="67" height="39" viewBox="0 0 67 39" fill="none" xmlns="http://www.w3.org/2000/svg">
<path d="M2.07771 2.13423C3.00363 1.20859 4.25928 0.688599 5.56853 0.688599C6.87777 0.688599 8.13342 1.20859 9.05934 2.13423L33.5 26.5749L57.9406 2.13423C58.8718 1.23483 60.119 0.737153 61.4136 0.748402C62.7082 0.759652 63.9466 1.27892 64.8621 2.19438C65.7775 3.10983 66.2968 4.34822 66.308 5.64281C66.3193 6.93741 65.8216 8.18463 64.9222 9.11586L36.9908 37.0473C36.0649 37.9729 34.8092 38.4929 33.5 38.4929C32.1907 38.4929 30.9351 37.9729 30.0092 37.0473L2.07771 9.11586C1.15207 8.18994 0.63208 6.93429 0.63208 5.62504C0.63208 4.3158 1.15207 3.06015 2.07771 2.13423Z" fill="#5B5B5B"/>
</svg>
